<?xml version="1.0" encoding="utf-8"?>
<!-- Generator: Adobe Illustrator 23.1.0, SVG Export Plug-In . SVG Version: 6.00 Build 0)  -->
<svg version="1.1" id="Capa_1" xmlns="http://www.w3.org/2000/svg" xmlns:xlink="http://www.w3.org/1999/xlink" x="0px" y="0px"
	 viewBox="0 0 1200 1200" enable-background="new 0 0 1200 1200" xml:space="preserve">
<g>
	<path fill="#E99F81" d="M208.677,437.666c0,0-10.008,0.345-18.29,4.831c-8.282,4.486-16.565,8.628-21.051,9.318
		c-4.486,0.69-10.698,1.38-13.114,2.761s-6.557,4.141-7.937,7.592c-1.38,3.451-4.141,8.282-3.451,11.043
		c0,0-6.212,6.902-8.282,8.628c-2.071,1.726-4.141,6.902-4.831,8.973c-0.69,2.071,2.071,7.592,7.592,1.38
		c5.522-6.212,10.698-9.318,13.804-10.698s6.557-5.177,9.663-3.796c3.106,1.38,3.106,4.486-1.035,7.247
		c-4.141,2.761-10.353,4.486-16.91,10.698s-10.353,11.388-12.769,13.804c-2.416,2.416,1.035,8.973,7.592,5.867
		c6.557-3.106,13.459-8.973,16.22-11.043c2.761-2.071,10.698-6.902,13.459-8.282c2.761-1.38,4.831-2.416,5.177-1.035
		c0.345,1.38-7.247,6.212-11.043,8.628c-3.796,2.416-10.353,8.282-14.839,10.353c-4.486,2.071-10.698,6.557-9.318,10.698
		s7.937,2.416,12.424,0.345s15.875-6.557,19.671-10.353c3.796-3.796,22.087-12.079,25.883-13.804c0,0-4.852,5.329-5.867,8.628
		c-1.38,4.486-2.265,10.376-1.726,14.149c0.69,4.831,4.486,7.592,8.628,7.247c4.141-0.345,3.106-8.282,4.831-11.734
		c1.726-3.451,10.008-9.663,13.459-14.839c3.451-5.177,9.318-14.839,13.459-19.671s6.212-10.353,6.902-16.22
		C237.666,462.513,208.677,437.666,208.677,437.666z"/>
	<g>
		<circle fill="#FFF8DD" cx="940.986" cy="565.013" r="73.161"/>
		<g>
			<path fill="#84B1C4" d="M1013.108,552.38l-0.054,0.216v0.054l-0.999,5.211c-1.836,1.323-8.37,4.725-8.37,4.725
				c-2.862,26.892-16.713,48.329-16.713,48.329c0.648,2.133,1.917,5.994,2.808,8.586c0,0,0,0,0,0.027
				c-2.943,2.619-6.075,5.022-9.423,7.128c-1.404-3.888-3.834-9.207-3.834-9.207c-24.57,5.751-48.869-1.053-48.869-1.053
				c-7.101,8.451-17.037,11.691-21.789,12.798h-0.027c-3.267-1.782-6.372-3.834-9.315-6.102c9.774-1.35,24.597-14.796,24.597-14.796
				l-4.185-16.983l2.106-2.862l3.915,0.783l7.317,17.496c30.834,5.751,49.653-0.513,49.653-0.513
				c11.745-14.904,15.417-45.225,15.417-45.225c-12.285-16.2-38.691-30.024-38.691-30.024l-16.2,8.613l-4.158-1.566l0.513-4.455
				l15.147-9.396c1.323-13.581-8.613-30.051-8.613-30.051c-2.997-1.323-9.882-1.377-14.418-1.242
				c3.915-0.675,7.965-1.026,12.069-1.026c6.426,0,12.636,0.837,18.576,2.376l-3.429,1.188c4.455,8.37,8.613,27.459,8.613,27.459
				c21.951,10.962,38.691,30.564,38.691,30.564l6.534-3.672l3.051,2.538v0.027L1013.108,552.38z"/>
			<path fill="#84B1C4" d="M889.773,548.466l-3.645,2.862l-9.693-3.132c-5.292,9.18-7.452,17.955-8.316,23.328
				c-0.189-2.133-0.297-4.32-0.297-6.507c0-5.562,0.621-10.989,1.809-16.2c0-0.027,0.027-0.027,0.027-0.054
				c1.89-4.968,3.915-7.884,3.915-7.884c0.108-2.619,0.675-5.211,1.566-7.776c3.618-7.452,8.451-14.202,14.283-19.98
				c-7.209,12.177-9.828,27.513-9.828,27.513l8.613,3.915L889.773,548.466z"/>
		</g>
	</g>
	<path fill="#3C2E40" d="M565.514,133.63c-0.69-4.141-3.106-24.502-3.106-34.855s2.071-23.467,4.831-25.538
		c2.761-2.071,13.114-13.114,15.185-15.53c2.071-2.416,22.087-8.628,32.44-7.592c10.353,1.035,19.326,1.726,19.326,1.726
		l-2.416,2.071c0,0,11.388,4.486,17.945,4.486c6.557,0,9.663,1.035,9.663,1.035l-1.38,2.761c0,0,11.388,10.008,16.565,10.008
		l-2.071,2.761l6.557,0.69c0,0,1.38,6.902-2.071,10.008l4.141-0.69c0,0,3.451,13.459-4.141,17.6
		c-7.592,4.141-63.844,36.236-81.444,39.687S565.514,133.63,565.514,133.63z"/>
	<path fill="#FFEC73" d="M581.216,191.608c-3.624-1.553-7.247-1.035-8.8,1.035c-1.553,2.071-10.353,8.8-13.977,9.318
		c-3.624,0.518-17.6-0.518-20.706,10.871c0,0-8.8,3.106-13.977,4.141c-5.177,1.035-9.835,1.035-12.424,5.694
		c0,0-6.212-3.624-9.318,1.553c0,0-1.035,0.518-7.765,1.553c-6.729,1.035-27.436,7.247-33.648,9.835
		c-6.212,2.588-23.812,15.53-32.095,21.742c-8.282,6.212-59.013,31.059-68.848,35.201c-9.835,4.141-41.412,25.365-54.871,38.824
		s-50.73,61.601-56.424,65.742c-5.694,4.141-12.941,9.835-13.977,16.047c0,0-11.906,10.353-13.977,12.424
		s-10.871,9.318-13.459,10.871c-2.588,1.553,17.6,32.095,31.577,34.683c0,0,11.388-15.012,16.565-18.118
		c5.177-3.106,2.588-5.694,4.659-10.353c2.071-4.659,38.824-39.859,48.66-44.518c9.835-4.659,35.718-29.506,37.271-32.612
		c1.553-3.106,8.8-4.659,10.871-8.8c0,0,8.8-2.588,15.012-8.283c6.212-5.694,17.083-6.729,26.918-8.8s13.977-4.659,13.977-4.659
		l4.141,5.694c0,0,16.565-8.282,22.259-13.977c5.694-5.694,37.271-7.765,40.895-7.247c3.624,0.518,10.353,2.071,13.977,8.282
		c3.624,6.212,23.812,51.248,27.953,61.601s23.812,72.472,24.33,78.684c0,0-2.071,4.659-1.553,9.835s5.177,11.906,5.177,11.906
		s1.035,8.282-2.588,9.835c-3.624,1.553-0.518,12.941-0.518,12.941s-0.518,7.765-5.177,9.318
		c-4.659,1.553-3.624,10.353-5.694,12.941c-2.071,2.588-3.106,7.247,1.553,6.212c4.659-1.035,33.13-15.012,61.601-9.318
		c28.471,5.694,48.659,6.212,56.424,7.247c7.765,1.035,18.118,14.494,18.118,14.494s21.224,11.906,28.471,12.424
		c7.247,0.518,14.494-2.071,12.941-5.694s-6.729-16.565-6.729-21.742c0-5.177-2.071-45.554-0.518-56.942
		c1.553-11.388,4.659-14.494,3.106-21.224c-1.553-6.729,0-75.578,2.071-88.001s2.588-42.965,4.141-50.73
		c1.553-7.765,8.8-28.989,8.8-35.718c0-6.729,9.835-17.6,12.941-22.777c3.106-5.177,39.859-8.8,44.001-9.835
		s16.565-0.518,22.777-3.106s32.612-2.588,38.306-5.694c0,0,38.306-2.588,49.695-8.8c11.388-6.212,41.412-20.189,46.071-21.741
		c4.659-1.553,13.459-5.694,26.918-7.247c13.459-1.553,27.953-7.247,27.436-13.459s-13.459-27.436-22.777-27.436
		c-9.318,0-9.835,4.659-15.53,4.141c-5.694-0.518-7.765-2.588-10.353-0.518c-2.588,2.071-3.106,4.141-8.282,4.141
		c-5.177,0-11.388-1.553-14.494,1.553c-3.106,3.106-9.835,0-14.494,1.035s-7.765,2.588-7.765,2.588s-39.859,3.106-46.071,5.177
		s-15.012,6.73-20.189,5.694c-5.177-1.035-15.077,0.179-29.506,1.553c-21.742,2.071-59.013-9.318-73.507-9.835
		s-31.577,4.659-31.577,4.659s-31.577,4.141-39.859,0.518S581.216,191.608,581.216,191.608z"/>
	<path fill="#E99F81" d="M967.214,184.706c1.212,3.838,14.839,8.973,20.361,7.247c0,0,7.937,1.035,16.565-3.796
		c8.628-4.831,15.53-13.804,20.016-17.945c4.486-4.141,8.628-10.008,8.628-10.008l8.973-1.726l6.212,1.726
		c0,0,3.451,3.451,9.663,3.451c6.212,0,6.557-3.451,2.071-6.902c-4.486-3.451-4.831-3.451-8.973-4.831s-5.177-3.106-9.318-3.451
		c-4.141-0.345-10.353,0-10.353,0s-0.345-3.106,2.071-4.486c2.416-1.38,5.177-3.106,5.177-3.106s8.282,3.796,12.424,1.726
		c0,0,4.141,0,8.628,0.345c4.486,0.345,8.973-0.69,9.318-4.141c0.345-3.451-2.071-5.522-2.071-5.522s2.416-5.177-2.761-6.557
		s-10.698-1.035-16.91-2.761c-6.212-1.726-16.91-0.345-18.981,1.035c0,0-5.867-1.035-9.318,1.38
		c-3.451,2.416-13.114,10.353-15.185,11.388c0,0-5.867-2.071-7.247,0c-1.38,2.071-2.761,6.557-2.761,6.557
		s-9.318,9.318-13.114,12.424c-3.796,3.106-6.557,8.282-7.592,11.388C971.7,171.246,965.143,178.149,967.214,184.706z"/>
	<path fill="#3C2E40" d="M537.215,537.401c0,0-1.553,7.247-1.553,10.353c0,0-4.659,4.141-6.212,5.177
		c-1.553,1.035-4.659,4.141-2.588,6.212s2.071,5.694-0.518,6.212c-2.588,0.518-1.553,5.694-1.035,7.247s1.035,5.177,1.035,8.282
		c0,3.106,1.553,28.989,1.035,35.718c-0.518,6.73,2.588,17.083,10.353,25.365s20.706,26.4,20.706,26.4s1.035,16.047,0,21.741
		c-1.035,5.694-4.141,15.53-9.318,19.671c-5.177,4.141-6.729,6.212-6.729,11.906c0,5.694-2.071,12.941-2.071,12.941
		s-7.247,9.835-9.835,16.565c-2.588,6.729-8.8,15.012-7.765,18.636c1.035,3.624,12.424,22.777,18.636,24.847
		s85.931,52.283,85.931,52.283s8.282-7.765,11.388-16.047s36.236-95.248,36.753-102.496c0,0,9.318,6.212,14.494,8.282
		c5.177,2.071,9.318-1.553,8.282-9.835c-1.035-8.282,5.694-19.671,5.694-19.671s11.388-2.071,14.494-4.659
		c3.106-2.588,7.247-8.8,7.247-8.8l61.601-77.648c0,0-22.777-21.224-31.059-25.365s-13.977-12.941-22.259-13.459
		s-26.918-5.177-32.095-11.388c-5.177-6.212-32.612-31.059-76.613-37.789C581.216,521.354,537.215,537.401,537.215,537.401z"/>
	<path fill="#E99F81" d="M808.466,627.473c0,0-17.6-9.318-26.918-10.871c-9.318-1.553-13.459,0.518-19.153,4.659
		c-5.694,4.141-38.824,40.895-40.895,45.036s-3.624,23.812-3.624,23.812s10.353,6.212,20.706,7.765s26.918,6.212,30.024,8.8
		c3.106,2.588,2.071,12.424,3.624,15.012c1.553,2.588,65.224-27.953,65.224-27.953s-3.106-16.565-2.588-24.33
		c0.518-7.765,1.035-22.259-5.694-28.989S815.713,625.92,808.466,627.473z"/>
	<path fill="#FFEC73" d="M781.031,749.122c0,0-3.624-2.588-5.694-10.871s-5.177-17.083-2.071-20.706
		c3.106-3.624,42.965-30.024,64.189-23.812c6.212,2.588,11.388,13.977,13.459,17.6c2.071,3.624,1.553,8.8,1.553,8.8
		s0,4.141,5.177,4.659c5.177,0.518,21.741,32.612,28.989,44.518c7.247,11.906,22.777,47.107,24.33,50.73
		c1.553,3.624-0.518,5.177-0.518,5.177s12.941,15.012,18.636,19.671c5.694,4.659,20.313,14.207,25.365,16.565
		c7.765,3.624-10.871,29.506-20.706,33.13s-36.236,3.624-40.377-2.071s-8.282-17.6-19.671-30.542
		c-11.388-12.941-41.93-46.071-55.389-57.46C804.843,793.122,781.031,768.792,781.031,749.122z"/>
	<path fill="#E99F81" d="M507.709,869.735c3.624-0.518,11.388-3.624,13.977-7.247s14.494-33.13,16.565-44.518
		c2.071-11.388,5.694-27.953,5.694-27.953s28.471,0.518,43.483,7.765c15.012,7.247,18.636,6.729,23.812,15.53
		c5.177,8.8,16.047,27.953,16.047,31.577c0,0-13.977,19.671-17.083,24.847c-3.106,5.177-9.318,20.706-10.353,29.506
		c-1.035,8.8-4.659,19.153-12.424,22.777s-14.494,9.835-24.847,9.318c-10.353-0.518-35.201,10.353-40.895,10.353
		S487.52,895.618,507.709,869.735z"/>
	<path fill="#FFEC73" d="M507.709,869.735c0,6.729-3.106,39.859,17.6,69.883c4.141,6.729-5.177,8.8-9.835,10.353
		c-4.659,1.553-15.012,4.659-20.706,8.8c0,0-4.659,6.212-13.977,9.318c-9.318,3.106-58.495,22.259-69.883,27.953
		s-22.259,2.588-22.259,2.588s-31.059,16.047-34.683,21.742c-3.624,5.694-7.765,10.871-13.977,13.977
		c-6.212,3.106-35.718,0.518-35.718-22.777c0-23.294,16.047-39.859,20.706-41.412c4.659-1.553,8.282,0.518,18.118-6.212
		c9.835-6.73,63.154-40.895,70.401-50.213c7.247-9.318,20.706-19.153,29.506-20.189c0,0,13.459-10.871,20.706-11.388
		c7.247-0.518,17.083-4.659,25.365-7.765C497.356,871.288,507.709,860.935,507.709,869.735z"/>
	<path fill="#84B1C4" d="M868.468,738.015c-26.538,8.131-50.245,25.869-69.37,47.4c5.653,6.613,11.717,12.525,16.777,16.992
		c19.115-17.567,41.632-32.612,65.914-41.443C877.785,753.909,872.901,745.149,868.468,738.015z"/>
	<path fill="#84B1C4" d="M440.142,894.156c-7.57,2.156-17.316,9.129-23.99,16.44c-0.717,25.571,7.266,53.5,23.92,73.107
		c7.504-3.004,15.311-6.064,22.142-8.696C447.03,951.623,440.961,923.062,440.142,894.156z"/>
	<path fill="#3C2E40" d="M317.04,972.231c3.227,1.844,2.416,9.318-0.345,14.149c-2.761,4.831-7.247,31.404,6.902,40.032
		c14.149,8.628,17.945,6.212,17.255,11.388c-0.69,5.177-1.035,7.937-1.035,7.937s2.416,8.282-0.345,9.663
		c-2.761,1.38-6.902,1.035-6.902,1.035s-6.902,13.804-11.388,16.91c-4.486,3.106-8.282,10.008-10.353,15.875
		c-2.071,5.867-4.141,14.839-3.796,20.361c0.345,5.522-2.416,22.087-5.522,29.679c-3.106,7.592-12.079,16.91-21.396,5.177
		c0,0-4.831,0.69-5.867-4.486s1.726-6.557,1.726-6.557l-1.38-7.247c0,0-7.592,1.035-8.973-4.486
		c-1.38-5.522,4.486-8.973,4.486-8.973s-1.38-11.043-1.38-15.185c0,0-6.557-2.071-5.867-7.937c0.69-5.867,6.212-7.247,6.212-7.247
		v-4.486c0,0-5.522-2.761-4.831-7.592c0.69-4.831,7.937-6.902,7.937-6.902s1.38-26.573,0.69-35.2c0,0-9.318-3.451-9.318-9.318
		s4.141-7.592,5.867-8.628c1.726-1.035,2.071-4.831-1.035-5.522c-3.106-0.69-6.902-4.141-6.212-8.973
		c0.69-4.831,5.522-4.831,6.212-7.592c0.69-2.761-0.345-13.459,3.796-15.875c4.141-2.416,17.945-2.071,23.812-1.035
		C301.855,972.231,312.208,969.47,317.04,972.231z"/>
	<path fill="#3C2E40" d="M664.273,294.964c-5.065-0.486-9.888-1.695-21.227-0.256c-11.338,1.439-14.718,5.538-14.721,10.362
		c-0.004,4.824-0.257,22.433-0.02,28.946c0.237,6.513,4.085,21.471,9.151,21.957c5.065,0.486,28.946-1.186,28.946-1.186
		c0.963,1.93,1.683,8.202,1.198,12.061c-0.485,3.859,1.68,11.821-2.421,12.059c-4.101,0.238-15.68,2.401-17.126-0.494
		c-1.445-2.895-2.647-8.927-2.647-8.927l-12.061,1.198c0,0,0.709,20.745,7.704,20.267c5.105-0.349,12.059,2.421,24.121,0.017
		c12.062-2.404,13.029-5.298,12.796-16.635c-0.233-11.337-2.856-55.24-3.333-63.441C674.157,302.69,669.338,295.45,664.273,294.964z
		 M662.572,312.089c0.238,4.101,0.235,8.925,1.435,17.368c1.2,8.443-1.215,12.06-3.868,12.782s-5.138-0.303-12.302,0.715
		c-5.066,0.72-7.235-2.417-6.991-6.759c0.244-4.342-2.402-14.475-1.431-23.399c0.971-8.924,7.482-5.543,13.513-6.745
		C658.959,304.85,662.334,307.989,662.572,312.089z"/>
	<path fill="#E99F81" d="M676.982,102.571c1.035,5.694,2.071,18.636,0.518,21.224s-2.588,7.247-2.588,7.247
		s1.035,9.835,1.553,18.118c0.518,8.282-3.106,14.494-6.212,20.189c-3.106,5.694-4.141,17.083-7.247,22.259
		c-3.106,5.177-2.071,15.53-5.177,19.671c-3.106,4.141-8.8,6.212-8.8,6.212s0,8.282-3.624,14.494
		c-3.624,6.212-8.282,10.353-18.118,9.835c-9.835-0.518-23.812-7.765-32.095-9.318s-12.424-18.118-12.424-18.118
		s-7.765-15.53-5.177-20.706c2.588-5.177,1.553-23.294,1.553-23.294s-7.075-6.384-11.561-11.561
		c-4.486-5.177-10.698-14.494-7.937-23.122c2.761-8.628,13.114-5.177,16.91-2.071s6.557,6.902,8.973,4.831s-1.38-3.796,2.761-8.282
		c4.141-4.486,11.388-12.079,13.114-17.255s-2.416-15.185,5.177-16.91c0,0,0.69,4.831,6.212,5.177c0,0-1.035-2.761,1.035-5.177
		c2.071-2.416,7.937,1.38,5.177,7.247c0,0,5.867,2.416,11.043-0.345c0,0,10.698,2.761,15.185-2.761
		c4.486-5.522,6.212,1.38,10.008,0.69s8.628-1.035,11.388-4.486C669.39,92.908,676.982,102.571,676.982,102.571z"/>
	<path fill="#3C2E40" d="M954.445,861.453c0,0,5.177-5.694,10.353-6.73c5.177-1.035,9.318,3.106,3.624,6.73
		c0,0,13.459,4.141,20.188,3.624c6.73-0.518,5.177,2.588,1.553,3.106s-7.765,0.518-7.765,0.518s11.906,5.177,17.6,5.177
		s27.953,1.553,37.789,0.518c9.835-1.035,21.742-3.624,26.918,2.588s4.659,10.353,2.071,14.494c0,0,1.035,3.624-2.071,6.212
		c-3.106,2.588-7.247-1.035-7.247-1.035l-8.8,4.659c0,0,2.071,6.729-1.035,7.765c-3.106,1.035-7.247-1.553-7.247-1.553
		s-2.588,1.035-2.588,3.624s-5.694,5.694-8.8,2.071c0,0-4.141,0.518-3.624,3.106c0.518,2.588-5.694,7.247-9.835,1.553l-5.694,1.553
		c0,0-1.035,5.694-5.177,6.212s-8.282-4.141-8.282-4.141l-6.729,2.071c0,0-1.035,4.659-3.624,5.177
		c-2.588,0.518-7.247-3.624-7.247-3.624s-11.906,4.141-15.012,6.729c-3.106,2.588-13.977,7.247-13.977,7.247
		s-0.518,5.177-3.106,6.73s-7.765-1.553-7.765-1.553l-5.177,3.624c0,0-1.035,6.212-4.659,7.765
		c-3.624,1.553-9.318-3.624-9.318-3.624s-9.835,0.518-12.941-5.177c-3.106-5.694-9.835-25.365-11.388-33.648
		s-2.472-15.074-1.553-19.671c1.035-5.177,7.247-3.106,10.353-1.035c3.106,2.071,18.118-2.071,22.777-5.694
		c4.659-3.624,10.871-8.282,18.118-10.353C952.374,874.394,950.821,867.147,954.445,861.453"/>
</g>
</svg>
